<?xml version="1.0" encoding="utf-8"?>
<!-- Generator: Adobe Illustrator 25.4.1, SVG Export Plug-In . SVG Version: 6.00 Build 0)  -->
<svg version="1.1" id="Capa_1" xmlns="http://www.w3.org/2000/svg" xmlns:xlink="http://www.w3.org/1999/xlink" x="0px" y="0px"
	 viewBox="0 0 151.2 16" style="enable-background:new 0 0 151.2 16;" xml:space="preserve">
<style type="text/css">
	.st0{fill:#495057;}
	.st1{fill:#B9C2C9;}
	.st2{font-family:'ArialRoundedMTBold';}
	.st3{font-size:10px;}
</style>
<path class="st0" d="M16,8c0,4.4-3.6,8-8,8c-4.4,0-8-3.6-8-8s3.6-8,8-8c2.1,0,4.2,0.8,5.7,2.3C15.2,3.8,16,5.9,16,8z M8,4
	C7.9,4,7.7,4,7.6,4.1C7.5,4.1,7.4,4.2,7.3,4.3C7.2,4.5,7.1,4.7,7.1,5l0.3,3.5C7.5,8.8,7.7,9,8,9c0.1,0,0.2-0.1,0.3-0.1
	c0.1-0.1,0.2-0.2,0.2-0.4L8.9,5c0-0.1,0-0.2,0-0.4C8.8,4.4,8.6,4.2,8.4,4.1C8.3,4,8.2,4,8,4L8,4z M8,10c-0.3,0-0.5,0.1-0.7,0.3
	C7.1,10.5,7,10.7,7,11c0,0.6,0.4,1,1,1c0.3,0,0.5-0.1,0.7-0.3C8.9,11.5,9,11.2,9,11C9,10.4,8.5,10,8,10L8,10z"/>
<text transform="matrix(1 0 0 1 18.3999 11.6802)" class="st1 st2 st3">Mónica Evelyn Quevedo D.</text>
</svg>
