<svg id="Capa_1" data-name="Capa 1" xmlns="http://www.w3.org/2000/svg" xmlns:xlink="http://www.w3.org/1999/xlink" viewBox="0 0 335.98 304.03"><defs><style>.cls-1,.cls-9{fill:none;}.cls-2{clip-path:url(#clip-path);}.cls-3{fill:#e8e8e8;}.cls-4{fill:#0a3871;}.cls-5{fill:#fff;}.cls-6,.cls-7,.cls-8{fill:#9b9797;isolation:isolate;}.cls-6{opacity:0.18;}.cls-7{opacity:0.25;}.cls-8{opacity:0.24;}.cls-9{stroke:#000;stroke-miterlimit:10;stroke-width:3px;}</style><clipPath id="clip-path" transform="translate(0.2 -0.43)"><rect class="cls-1" x="-0.26" y="0.25" width="336" height="304"/></clipPath></defs><g class="cls-2"><path class="cls-3" d="M.41,250.09c2.93-1.44,4.18-5.25,7.36-6.24s6.89,1,9.88-1.22c1.3-1,2.27-2.57,3.85-3.15,1.38-.49,2.82.06,4.15.47,1.13.36,2.27.69,3.4,1.05l13.67,4.2c5.17,1.57,10.32,3.18,15.5,4.75.49.17.72-.64.22-.8l-28.37-8.7c-2.21-.66-4.51-1.68-6.8-2a4.84,4.84,0,0,0-4,1.49c-1.58,1.46-2.77,2.82-5.07,2.93-1.91.11-3.79-.39-5.7-.08-3.93.6-5.15,4.88-8.47,6.51A.42.42,0,0,0,.41,250.09Z" transform="translate(0.2 -0.43)"/><path class="cls-3" d="M50.14,246.61c2,.5,3.51-1.47,5.28-2.05a8.65,8.65,0,0,1,7.09.78.41.41,0,0,0,.41-.72,9.47,9.47,0,0,0-8.61-.52c-1.19.52-2.57,2-4,1.71A.41.41,0,0,0,50.14,246.61Z" transform="translate(0.2 -0.43)"/><path class="cls-3" d="M71.47,244.54a59.48,59.48,0,0,1-5.28-4.89c-.78-.8-1.53-1.66-2.25-2.51-.41-.5-.83-1-1.21-1.49s-.56-.72-.81-1.08a1.11,1.11,0,0,1,0-1.6c.33.13.86-.2.58-.58a23.54,23.54,0,0,1-3.73-7.46l-.5.5a3.37,3.37,0,0,1,2.07,1.49c.28.44,1,.05.72-.42a117.6,117.6,0,0,1-10-22.45l-.69.42C62,215.85,67.21,231.67,77,244.4c.33.41,1,0,.72-.42-9.8-12.78-15.11-28.66-26.76-40.09a.42.42,0,0,0-.69.41A117.25,117.25,0,0,0,60.37,227l.72-.42a4.22,4.22,0,0,0-2.57-1.88.4.4,0,0,0-.5.5,25,25,0,0,0,3.82,7.65l.58-.58a1.25,1.25,0,0,0-1.82.91c-.25,1.3,1.32,2.74,2,3.65a57.4,57.4,0,0,0,8.3,8.34C71.3,245.45,71.89,244.87,71.47,244.54Z" transform="translate(0.2 -0.43)"/><path class="cls-3" d="M68.57,227.28a108.28,108.28,0,0,1-12.26-24.36c-.09.17-.2.33-.28.5a2,2,0,0,1,2.27,1c.28.47.94.05.72-.42-4.29-9.25-8.66-18.89-8.36-29.3-.25.09-.52.14-.77.22Q61,197.68,70.94,221c.2.44.92.11.75-.33-1.1-3.31-2.18-6.65-3.29-10-.53-1.63-1.08-3.23-1.61-4.86-.36-1.08-1.13-3.42.42-4-.17-.06-.31-.14-.47-.2l6,11.69c.25.46,1,.05.72-.42a27.3,27.3,0,0,1-3-13.64l-.81.11A368.84,368.84,0,0,0,89.57,241c.25.47,1,.06.72-.41a363.79,363.79,0,0,1-19.84-41.45.41.41,0,0,0-.81.11,28.54,28.54,0,0,0,3.08,14.06l.72-.42c-2-3.89-4-7.79-6-11.68A.44.44,0,0,0,67,201c-2.77,1-1,5-.39,6.82,1.44,4.33,2.85,8.7,4.29,13l.74-.33q-10-23.28-21-46.09c-.2-.38-.78-.16-.78.22C49.5,185.22,54,195,58.3,204.39L59,204a2.92,2.92,0,0,0-3.21-1.35.39.39,0,0,0-.28.5,110.05,110.05,0,0,0,12.34,24.54C68.15,228.13,68.87,227.72,68.57,227.28Z" transform="translate(0.2 -0.43)"/><path class="cls-3" d="M13.89,280.66c9.57-4.61,19.67-9.31,30.6-8.2,5.18.52,10.18,2,15.33,2.67a32.07,32.07,0,0,0,7.83.17c2.44-.3,4.73-1.19,7.11-1.71,3.08-.69,5.87,0,8.83.85,2.44.67,4.84,1.22,7.36.64.53-.11.31-.91-.22-.8-5,1.19-9.77-2.43-14.86-1.71-2.52.35-4.87,1.35-7.36,1.79a27.64,27.64,0,0,1-8,.06c-5.23-.61-10.32-2.16-15.58-2.74a38.93,38.93,0,0,0-15.25,1.52,107.7,107.7,0,0,0-16.24,6.74C13,280.16,13.42,280.88,13.89,280.66Z" transform="translate(0.2 -0.43)"/><path class="cls-3" d="M70.06,303.55a100.05,100.05,0,0,0,9.49-4.61c1.61-.91,3.18-1.85,4.76-2.85a31.93,31.93,0,0,1,4.37-2.87c1.75-.72,4.37.64,6.12,1.16s3.71,1.13,5.53,1.71l11.35,3.48c.5.17.72-.63.22-.8L99.75,295c-1.94-.6-3.87-1.18-5.81-1.79-1.49-.47-3.38-1.44-5-1.05s-2.8,1.63-4,2.46c-1.61,1-3.27,2.07-4.93,3a94.22,94.22,0,0,1-10.38,5.11C69.15,303,69.59,303.74,70.06,303.55Z" transform="translate(0.2 -0.43)"/><path class="cls-3" d="M104.48,304.41c2.11-1.05,4.21-2.13,6.31-3.18,1.94-1,4-2.32,6.23-2.51s4,1.24,5.92,2.1a15.41,15.41,0,0,0,5.17,1.24c4.15.22,8-1.85,12.15-1.63,3.29.19,6.61,2.9,9.85,1.19.47-.25.06-1-.41-.72-2,1.08-4.21,0-6.2-.61a12.32,12.32,0,0,0-5.18-.61c-4.26.44-8.16,2.24-12.53,1.22-3.63-.83-6.39-3.84-10.29-2.71a32.33,32.33,0,0,0-5.15,2.35c-2.1,1-4.21,2.13-6.31,3.17C103.6,303.94,104,304.65,104.48,304.41Z" transform="translate(0.2 -0.43)"/><path class="cls-3" d="M120.64,298.41a26,26,0,0,1-4.54-5.05c-.58-.86-1.1-1.77-1.6-2.68a14.88,14.88,0,0,1-.66-1.41c-.17-.38-.34-.74-.48-1.13s-.13-.8.34-1.16l.74-.33a33.54,33.54,0,0,1-5.59-14.91l-.71.3c.49.64,1,1.27,1.52,1.93.3.39.88-.11.66-.49a58.14,58.14,0,0,1-7.44-28.09l-.72.31a13.58,13.58,0,0,1,4.2,5.63l.75-.33a21.31,21.31,0,0,1-1.33-14.55H105l17,48.6c.17.49,1,.27.8-.22A77.5,77.5,0,0,1,118.59,259l-.71.3a9.73,9.73,0,0,1,3.12,5.66.41.41,0,0,0,.8-.11c-.08-1.68-.19-3.39-.27-5.08-.22.11-.42.25-.64.36,1.47.94,1.74,3.43,2.22,5s1,3.32,1.52,5c1,3.42,2.07,6.82,3.1,10.25q3.11,10.23,6.22,20.49c.17.49,1,.3.8-.23-2.24-7.34-4.45-14.71-6.69-22.06-1.08-3.59-2.19-7.18-3.27-10.77-.55-1.85-1.1-3.67-1.66-5.52a4.72,4.72,0,0,0-1.8-2.82.44.44,0,0,0-.63.36c.08,1.68.19,3.4.27,5.08l.81-.11a10.22,10.22,0,0,0-3.35-6.05.43.43,0,0,0-.72.31,78.07,78.07,0,0,0,4.21,26.06c.27-.08.52-.13.8-.22l-17-48.6a.42.42,0,0,0-.8,0,22.29,22.29,0,0,0,1.41,15.19c.19.41.94.11.74-.33a14.12,14.12,0,0,0-4.42-6,.43.43,0,0,0-.72.3,58.73,58.73,0,0,0,7.55,28.5l.67-.5-1.53-1.93a.42.42,0,0,0-.72.3,34.12,34.12,0,0,0,5.7,15.33.41.41,0,0,0,.75-.33,1,1,0,0,0-1.69-.58c-1.16.83,0,2.79.39,3.73A26.29,26.29,0,0,0,119.9,299C120.48,299.32,121.06,298.74,120.64,298.41Z" transform="translate(0.2 -0.43)"/><path class="cls-3" d="M91.7,236.47c-.36-5.19,9.07-2.21,11.7-1.71l12.93,2.4L142.17,242c.53.11.75-.69.22-.8l-29.61-5.52q-7.26-1.38-14.52-2.71c-1.75-.33-3.77-.69-5.4.22a3.47,3.47,0,0,0-2,3.31C90.9,237,91.75,237,91.7,236.47Z" transform="translate(0.2 -0.43)"/><path class="cls-3" d="M136.44,241.06c2.88.3,4.65-2.43,6.89-3.76,1.91-1.1,3.57-.25,5.54.14a20.54,20.54,0,0,0,6.64.22c.52,0,.52-.88,0-.83a20.15,20.15,0,0,1-7.42-.41c-1.46-.39-2.79-.86-4.26-.28-2.6,1-4.37,4.42-7.39,4.09C135.92,240.17,135.92,241,136.44,241.06Z" transform="translate(0.2 -0.43)"/><path class="cls-3" d="M189.21,294.16c6.64-2.32,13.34-4.64,20.2-6.3a82.49,82.49,0,0,1,21.75-2.18c7.28.22,14.5,1.05,21.75,1.71l21.83,2.05q12.54,1.15,25.1,2.35c.53,0,.53-.78,0-.83q-22.36-2.07-44.77-4.17c-14.36-1.33-28.81-3.29-43.11-.33-7.86,1.62-15.44,4.28-23,6.9C188.49,293.52,188.71,294.33,189.21,294.16Z" transform="translate(0.2 -0.43)"/><path class="cls-3" d="M218.46,267c4.95-1.05,9.6-3.12,14.28-5a54.31,54.31,0,0,1,15.44-3.84,110.44,110.44,0,0,1,16.27.14c5.42.33,10.85.72,16.3,1.1,6.33.47,12.7,1,19,1.55.52.06.52-.77,0-.83q-16.86-1.49-33.74-2.57c-10.7-.69-21.25-1-31.46,2.82-5.42,2-10.68,4.58-16.38,5.8C217.74,266.3,217.93,267.1,218.46,267Z" transform="translate(0.2 -0.43)"/><path class="cls-3" d="M282.24,235.15a85.63,85.63,0,0,1,12.56-8.23,18.48,18.48,0,0,1,6.92-2.18,37.3,37.3,0,0,1,7.83.63c5.23.64,10.49,1,15.75,1.36,3.49.22,7.91.71,10.38-2.32.33-.42-.25-1-.59-.58-2.79,3.45-8.68,2.15-12.5,1.9-5.26-.36-10.46-.85-15.69-1.52a22.14,22.14,0,0,0-6.7-.08,21.12,21.12,0,0,0-6.25,2.32,90.07,90.07,0,0,0-12.15,8C281.41,234.76,281.83,235.48,282.24,235.15Z" transform="translate(0.2 -0.43)"/><path class="cls-3" d="M129.91,230.59c3.93-3,7.89-5.88,11.82-8.83,3.76-2.82,7.28-5.78,12.2-6a106.08,106.08,0,0,1,14,.69q7.47.62,14.86,1.65c4.15.58,9.1,2.13,13,0,.47-.24.06-1-.41-.71a10.58,10.58,0,0,1-6.5.83c-2.41-.31-4.82-.72-7.23-1q-7-1-14-1.55a98.31,98.31,0,0,0-14-.66c-4.28.25-7.47,2.45-10.82,5-4.45,3.31-8.88,6.65-13.33,10C129.08,230.21,129.5,230.92,129.91,230.59Z" transform="translate(0.2 -0.43)"/><path class="cls-3" d="M285.59,259.78a35.26,35.26,0,0,1,1.14-5.36,24.06,24.06,0,0,1,.83-2.48c.19-.5.71-1.33,1.43-1.13.36.11.53,1.35.56,1.6a.41.41,0,0,0,.8.11c1.3-4.23,2.79-8.87,6.78-11.32-.22-.11-.42-.25-.64-.36,0,.69,0,1.41,0,2.1,0,.38.58.58.77.22,2.46-5.11,5.15-10.47,10.13-13.56-.2-.17-.42-.31-.61-.47a163.66,163.66,0,0,1-8.69,18.78c-.22.38.33.88.66.49a29.64,29.64,0,0,1,6.18-6l-.59-.58c-3.07,6.47-6.42,12.76-10.1,18.89a.42.42,0,0,0,.72.42q5.49-9.2,10.1-18.89c.17-.33-.19-.83-.58-.58a30.55,30.55,0,0,0-6.33,6.16l.66.49a163.79,163.79,0,0,0,8.77-19c.14-.33-.33-.63-.61-.47-5.12,3.18-7.88,8.62-10.43,13.86.25.09.53.14.78.23,0-.69,0-1.41,0-2.1a.42.42,0,0,0-.63-.36c-4.15,2.57-5.79,7.37-7.14,11.82.27,0,.55.08.8.11-.14-1.41-1.41-3.81-3-2a9.71,9.71,0,0,0-1.41,3.54,37.73,37.73,0,0,0-1.22,5.6C284.73,260.08,285.51,260.3,285.59,259.78Z" transform="translate(0.2 -0.43)"/><path class="cls-3" d="M92.25,213.17a32,32,0,0,1,6.73-3,19.23,19.23,0,0,1,7.52-.11l15,2c.53.08.53-.75,0-.83-5.34-.72-10.71-1.49-16-2.12a17.42,17.42,0,0,0-7.19.38,34.58,34.58,0,0,0-6.45,2.9A.44.44,0,0,0,92.25,213.17Z" transform="translate(0.2 -0.43)"/><path class="cls-3" d="M260.58,25.86c2-1.69,4.78-1.35,7-.28,1.66.8,3,2.43,4.95,2.52s3.29-1.16,4.82-2a4.71,4.71,0,0,1,3.23-.64A17.61,17.61,0,0,1,284,27c3.74,1.63,6.23-.63,9.38-2.43a7.34,7.34,0,0,1,2.85-1,7.64,7.64,0,0,1,3.63,1c1.83.77,3.21,1.08,5.06.33a6.9,6.9,0,0,1,5.37.06A29.75,29.75,0,0,0,314,26.14c1.91.44,4,.33,5.4-1.14.39-.38-.22-1-.58-.58-1.86,1.88-4.68,1-6.81.17s-4.37-1.71-6.67-.86c-1.44.56-2.41.94-4,.42-1.06-.36-2-.94-3.1-1.25a6.08,6.08,0,0,0-4.65.53c-1.72.86-3.21,2.21-5,2.93-2.38.94-4.23-.31-6.39-1.22a5.59,5.59,0,0,0-4.65-.08c-1.91.85-3.77,2.73-6,1.93a20.9,20.9,0,0,1-3.21-2A10.47,10.47,0,0,0,265.39,24,6.43,6.43,0,0,0,260,25.22.44.44,0,0,0,260.58,25.86Z" transform="translate(0.2 -0.43)"/><path class="cls-3" d="M270.54,44.72a.42.42,0,0,0,0-.83A.42.42,0,0,0,270.54,44.72Z" transform="translate(0.2 -0.43)"/><path class="cls-3" d="M276.07,47.73c1.3-2.35,4.37-1.22,6.28-.44s3.63,1.24,5.65.55c1.66-.58,3.15-1.68,4.87-2.07,2.38-.55,3.73,1.46,5.89,1.93,3.38.75,6.78-3,10-1.43.89.44,1.5,1,2.55.94a17.17,17.17,0,0,0,2.79-.75,10.89,10.89,0,0,1,7.72,1.16c.47.25.89-.47.42-.72a12.29,12.29,0,0,0-4.79-1.49,10.78,10.78,0,0,0-2.6.08c-1,.14-2,.58-3,.78-1.36.24-1.94-.42-3-.89a4.25,4.25,0,0,0-1.75-.3,13.17,13.17,0,0,0-4,1.1c-1.63.61-3.38,1.19-5,.36-1.41-.69-2.52-1.74-4.18-1.74-3.43,0-5.83,3.32-9.46,2.32-2.68-.74-7-3.37-9,.17C275.1,47.79,275.82,48.2,276.07,47.73Z" transform="translate(0.2 -0.43)"/><path class="cls-3" d="M249.23,80.78a5.82,5.82,0,0,1,6.36-.47c1.19.56,2.47,1.08,3.71.34.72-.45,1.19-1.14,2.05-1.38a5.22,5.22,0,0,1,2.77.13,27.76,27.76,0,0,0,4.73,1.19c1.94.14,3.71-.69,5.59-.88s3.43,1,5.31,1.3,3.24-1.22,5.07-.94a66.51,66.51,0,0,1,6.58,1.63.42.42,0,0,0,.22-.81,51.81,51.81,0,0,0-7-1.71c-2-.22-3.43,1.41-5.42.8S276,78.63,274,78.91s-4.07,1.13-6.26.66c-1.69-.36-3.32-1.16-5.06-1.27a4.47,4.47,0,0,0-1.91.28c-.78.3-1.19.93-1.91,1.35-1.66,1-3.9-1.08-5.67-1.22a6.6,6.6,0,0,0-4.57,1.47C248.21,80.54,248.82,81.12,249.23,80.78Z" transform="translate(0.2 -0.43)"/><path class="cls-3" d="M90.59,20.53a.42.42,0,0,0,0-.83A.42.42,0,0,0,90.59,20.53Z" transform="translate(0.2 -0.43)"/><path class="cls-3" d="M93,21.16c.49-2.45,3.76-.88,5-.13,1.36.85,2.79,1.63,4.45,1.16s3-2.07,5-2.18,3.71.77,5.48,1.32a8.81,8.81,0,0,0,4.71.41c1.85-.44,3.43-1.73,5.31-2.07,3.71-.63,7.06,2.38,10.82,1.22.5-.17.3-1-.22-.8-3.93,1.24-7.67-2.24-11.65-1-2,.64-3.77,2.07-6,2C113.81,21,111.93,20,110,19.51a6.79,6.79,0,0,0-4.62.19c-.86.39-1.6,1-2.46,1.44A4,4,0,0,1,99,20.7c-1.38-.81-2.57-1.74-4.26-1.61A2.45,2.45,0,0,0,92.28,21,.38.38,0,1,0,93,21.16Z" transform="translate(0.2 -0.43)"/><path class="cls-3" d="M95.54,182.4c3.3-1.38,6.62,1.08,9.94,1.25a20.8,20.8,0,0,0,5.06-.67,9.75,9.75,0,0,1,6,.42,4.64,4.64,0,0,0,3.65.36c.72-.28,1.33-.75,2-1a7.68,7.68,0,0,1,2.49-.33c3,.06,5.92,1.08,8.74-.25.47-.22.06-.93-.41-.71-3,1.4-6.37-.14-9.55.19-1.52.16-2.52,1.05-3.93,1.46-1.69.5-3.35-.94-5-1.18-3.57-.56-6.94,1.43-10.54.71-2.88-.58-5.78-2.26-8.72-1C94.85,181.82,95.07,182.63,95.54,182.4Z" transform="translate(0.2 -0.43)"/><path class="cls-4" d="M35.72,141.73a4.37,4.37,0,1,0-4.37-4.36A4.37,4.37,0,0,0,35.72,141.73Z" transform="translate(0.2 -0.43)"/><path class="cls-4" d="M290.21,111.74a3.07,3.07,0,1,0-3.07-3.07A3.06,3.06,0,0,0,290.21,111.74Z" transform="translate(0.2 -0.43)"/><path class="cls-4" d="M262.57,5a2.27,2.27,0,1,0-2.27-2.27A2.27,2.27,0,0,0,262.57,5Z" transform="translate(0.2 -0.43)"/><path class="cls-4" d="M162.62,201.32a2.82,2.82,0,1,0-2.82-2.82A2.82,2.82,0,0,0,162.62,201.32Z" transform="translate(0.2 -0.43)"/><path class="cls-4" d="M32.51,41.35a3.23,3.23,0,1,0-3.24-3.23A3.24,3.24,0,0,0,32.51,41.35Z" transform="translate(0.2 -0.43)"/><path class="cls-4" d="M144.14,154.71a1.85,1.85,0,1,0-1.86-1.85A1.85,1.85,0,0,0,144.14,154.71Z" transform="translate(0.2 -0.43)"/><path class="cls-4" d="M319.13,170.45a2.82,2.82,0,1,0-2.82-2.82A2.82,2.82,0,0,0,319.13,170.45Z" transform="translate(0.2 -0.43)"/><path class="cls-4" d="M11.48,217a2.1,2.1,0,1,0-2.1-2.1A2.1,2.1,0,0,0,11.48,217Z" transform="translate(0.2 -0.43)"/><path class="cls-5" d="M97.48,53.92c-2.41,4.88-4.84,9.77-7.25,14.66q14.94,20,29.89,40c2.57-3.89,5.12-7.87,7.69-11.87q9.09-14.25,17.38-28.19c-1.88-4.78-3.79-9.59-5.68-14.36-1.21-.64-2.43-1.25-3.65-1.88l-35.33.08C99.47,52.89,98.48,53.42,97.48,53.92Z" transform="translate(0.2 -0.43)"/><path d="M90.56,68.8Q93.73,61.89,97,55.05c.22-.47-.47-.91-.72-.42Q93,61.47,89.84,68.39C89.62,68.85,90.34,69.3,90.56,68.8Z" transform="translate(0.2 -0.43)"/><path d="M90,69.3q14.61,20,29.8,39.57c.33.41.92-.17.58-.58Q105.29,88.78,90.73,68.88C90.43,68.47,89.71,68.88,90,69.3Z" transform="translate(0.2 -0.43)"/><path d="M97.23,54.58c1.16-.61,2.3-1.24,3.46-1.85.47-.25.06-1-.41-.72-1.17.61-2.3,1.24-3.46,1.85A.41.41,0,1,0,97.23,54.58Z" transform="translate(0.2 -0.43)"/><path d="M101.38,52.78h25.93a.42.42,0,0,0,0-.83H101.38A.42.42,0,0,0,101.38,52.78Z" transform="translate(0.2 -0.43)"/><path d="M145.57,68.41c-1.74-4.61-3.54-9.16-5.39-13.75-.2-.5-1-.27-.8.22q2.77,6.84,5.39,13.75C145,69.13,145.77,68.91,145.57,68.41Z" transform="translate(0.2 -0.43)"/><path d="M144.66,68.83q-12.16,19.88-24.82,39.49c-.3.44.41.85.72.41q12.66-19.59,24.82-39.49C145.66,68.8,144.94,68.36,144.66,68.83Z" transform="translate(0.2 -0.43)"/><path d="M139.68,53.81c-1-.61-1.94-1.25-2.91-1.85-.44-.28-.85.41-.41.71,1,.61,1.94,1.25,2.91,1.85C139.74,54.83,140.15,54.11,139.68,53.81Z" transform="translate(0.2 -0.43)"/><path d="M135.83,51.87H114.19a.42.42,0,0,0,0,.83h21.64A.42.42,0,0,0,135.83,51.87Z" transform="translate(0.2 -0.43)"/><path d="M90.9,69.21l14.86-6.37c.49-.23,0-.92-.42-.72L90.48,68.5C90,68.72,90.43,69.43,90.9,69.21Z" transform="translate(0.2 -0.43)"/><path d="M97.37,54.33a76.59,76.59,0,0,1,9,2,.42.42,0,0,0,.23-.8,71.11,71.11,0,0,0-9-2C97.07,53.45,96.82,54.25,97.37,54.33Z" transform="translate(0.2 -0.43)"/><path d="M106.14,56.15c.67,2.07,1.25,4.14,1.75,6.27.11.53.91.3.8-.22-.5-2.13-1.08-4.2-1.74-6.27C106.78,55.43,106,55.63,106.14,56.15Z" transform="translate(0.2 -0.43)"/><path d="M107.42,56.24h22.22a.42.42,0,0,0,0-.83H107.42A.42.42,0,0,0,107.42,56.24Z" transform="translate(0.2 -0.43)"/><path d="M129.28,56.4c-.28,1.52-.56,3.07-.83,4.58-.09.53.72.75.8.23.27-1.52.55-3.07.83-4.59C130.16,56.1,129.36,55.88,129.28,56.4Z" transform="translate(0.2 -0.43)"/><path d="M108.33,62.48h19.45a.42.42,0,0,0,0-.83H108.33A.42.42,0,0,0,108.33,62.48Z" transform="translate(0.2 -0.43)"/><path d="M130.44,56.24l9-1.91c.52-.11.3-.91-.22-.8l-9,1.9C129.69,55.54,129.91,56.35,130.44,56.24Z" transform="translate(0.2 -0.43)"/><path d="M129.05,62.23c2.8.44,5.4,2,7.95,3.2l8.1,3.81c.47.22.92-.5.42-.72-2.88-1.35-5.73-2.67-8.61-4-2.43-1.16-4.95-2.62-7.63-3.06C128.75,61.34,128.53,62.14,129.05,62.23Z" transform="translate(0.2 -0.43)"/><path d="M108.58,63.75q5.4,22.2,10.76,44.43a.42.42,0,0,0,.8-.22q-5.39-22.2-10.76-44.43A.41.41,0,0,0,108.58,63.75Z" transform="translate(0.2 -0.43)"/><path d="M127.89,64.74q-5.06,21.38-8.33,43.16c-.08.53.72.75.81.22Q123.6,86.39,128.69,65A.41.41,0,0,0,127.89,64.74Z" transform="translate(0.2 -0.43)"/><path d="M128.17,37.1a29.94,29.94,0,0,0,2.05-9.94c0-.53-.81-.53-.83,0a29.5,29.5,0,0,1-2,9.72C127.17,37.37,128,37.57,128.17,37.1Z" transform="translate(0.2 -0.43)"/><path d="M133.84,37.65a46.67,46.67,0,0,1,9-7.9c.45-.3,0-1-.41-.71a46.16,46.16,0,0,0-9.16,8C132.9,37.46,133.48,38,133.84,37.65Z" transform="translate(0.2 -0.43)"/><path d="M139.29,42.76a29,29,0,0,1,10.55-1.13c.52,0,.52-.8,0-.83A29.5,29.5,0,0,0,139.07,42C138.57,42.12,138.77,42.93,139.29,42.76Z" transform="translate(0.2 -0.43)"/><path class="cls-3" d="M81,23.4a13.67,13.67,0,0,1-7.67,13.06.43.43,0,0,0,0,.72c4.51,2.71,6.59,7.68,7.78,12.57a.42.42,0,0,0,.8-.23c-1.24-5.1-3.46-10.27-8.16-13.06v.72A14.5,14.5,0,0,0,81.82,23.4C81.79,22.88,81,22.88,81,23.4Z" transform="translate(0.2 -0.43)"/><path class="cls-3" d="M81.29,23.4a14.44,14.44,0,0,0,8.08,13.78v-.72c-4.73,2.82-6.94,8-8.19,13.12a.42.42,0,0,0,.81.22c1.19-4.91,3.26-9.91,7.8-12.62a.43.43,0,0,0,0-.72A13.67,13.67,0,0,1,82.1,23.4C82.15,22.88,81.32,22.88,81.29,23.4Z" transform="translate(0.2 -0.43)"/><path d="M216,230.7a38.07,38.07,0,0,0,3.81-1.88c2.55-1.4,3.82-2.12,4.6-3.25,1-1.5.61-2.3,1.91-3.79a6.84,6.84,0,0,1,2.29-1.74c2.05-.85,4,.17,7.14,1.3a75.67,75.67,0,0,0,9.83,2.57c1.82.41,4,.83,7.25,1.82.91.28,1.63.53,2.13.69a5.21,5.21,0,0,1-.89,3.43,4.84,4.84,0,0,1-2,1.54,12.24,12.24,0,0,1-6.17.78c-3.87-.17-2.27.38-11.4.55-2,0-3.63,0-4.76,0-1.41,1-2.82,2-4.26,3q-3.66,2.66-7,5.27C217.69,237.58,216.86,234.13,216,230.7Z" transform="translate(0.2 -0.43)"/><path class="cls-5" d="M204.49,195.36c-2,1-2.22,1.43-9.63,7.73-11.57,9.8-12.84,10.33-23.33,19.47-10,8.72-11.93,10.9-13.84,13.78a36.21,36.21,0,0,0-6.11,16.29c-.42,4-1,9.5,2.54,13.86a14.28,14.28,0,0,0,6.06,4.23c2.91,1.1,5.29,1,9.58.66a62.59,62.59,0,0,0,11.76-2,66.48,66.48,0,0,0,11.73-4.53c5.15-2.54,7.36-4.42,14.39-9.14,3.13-2.1,7.75-5.16,13.56-8.7a17.75,17.75,0,0,0-.25-6.27,22.15,22.15,0,0,0-3.82-7.84,41.39,41.39,0,0,0-3.48-4.5,61.1,61.1,0,0,0,7.63-6.88,48.14,48.14,0,0,0,7.45-9.88c3.1-5.63,6.19-11.32,4.2-15.24C229.81,190.25,214.92,190,204.49,195.36Z" transform="translate(0.2 -0.43)"/><path class="cls-6" d="M229.28,198.37A71,71,0,0,1,221,212.7c-6,8-12.12,12.4-21.31,18.94-26,18.5-32.95,22.73-32.18,24.5,1,2.4,15.69-1.91,17.82-2.55a113.11,113.11,0,0,0,34.18-16.81L214,228.44a38.46,38.46,0,0,0,8.24-7.93,32,32,0,0,0,5.62-10.1A30.51,30.51,0,0,0,229.28,198.37Z" transform="translate(0.2 -0.43)"/><path d="M204.38,195.33c-9.86,7.32-19.46,15-28.7,23-4.43,3.84-8.85,7.68-13,11.79-3.69,3.65-7.12,7.68-9.19,12.48a32.88,32.88,0,0,0-2.24,16.1c.44,4.45,2.07,8.92,6.14,11.24,4.26,2.4,9.63,2.15,14.33,1.66a61.41,61.41,0,0,0,16.88-4.17c12-4.89,21.48-14,32.85-20.08.47-.25.05-1-.42-.72-9.49,5.06-17.57,12.35-27.09,17.4a61.29,61.29,0,0,1-15.88,5.77c-5.12,1.08-10.87,1.91-16.08.91a12.06,12.06,0,0,1-6.53-3.28,13,13,0,0,1-3.07-6.55,32.44,32.44,0,0,1,1.16-16.15c1.72-5,5.07-9.25,8.72-13s7.94-7.48,12-11q14.73-12.93,30.52-24.64C205.21,195.74,204.82,195,204.38,195.33Z" transform="translate(0.2 -0.43)"/><path d="M177.26,251.94c9.07-3.51,17.29-8.76,25.1-14.5,3.84-2.82,7.63-5.74,11.4-8.67a56.32,56.32,0,0,0,10.12-9.69c.34-.42-.38-.83-.72-.42a57.17,57.17,0,0,1-10.37,9.83c-3.71,2.9-7.45,5.77-11.26,8.56-7.64,5.58-15.64,10.72-24.49,14.11C176.54,251.33,176.76,252.13,177.26,251.94Z" transform="translate(0.2 -0.43)"/><path d="M213.34,228.69A21.1,21.1,0,0,1,220.76,247c-.06.53.77.53.83,0a22,22,0,0,0-7.67-18.91C213.53,227.75,213,228.33,213.34,228.69Z" transform="translate(0.2 -0.43)"/><path d="M220.7,239.32c1.58-.47,3-1.8,4.29-2.74l4.95-3.48c.45-.3,0-1-.41-.71L225,235.56c-1.39,1-2.91,2.46-4.54,3A.41.41,0,0,0,220.7,239.32Z" transform="translate(0.2 -0.43)"/><path d="M216.14,231.09a33.3,33.3,0,0,0,8.6-5.25c.42-.36-.19-.94-.58-.58a30.83,30.83,0,0,1-8.22,5C215.44,230.51,215.67,231.31,216.14,231.09Z" transform="translate(0.2 -0.43)"/><path d="M224.44,225.48a.42.42,0,0,0,0-.83A.42.42,0,0,0,224.44,225.48Z" transform="translate(0.2 -0.43)"/><path d="M225.43,224.49a9.35,9.35,0,0,1,1.86-3.18c1.19-1.16,2.63-1,4.15-.66,2.82.64,5.59,1.52,8.35,2.32a51,51,0,0,0,7.81,1.66,11.51,11.51,0,0,1,4.23,1.05,9,9,0,0,0,3,1.1c.52.06.52-.77,0-.83-1.53-.14-2.72-1.18-4.16-1.65a29.65,29.65,0,0,0-4.53-.69,77.36,77.36,0,0,1-9.61-2.46c-1.54-.44-3.09-.89-4.67-1.24a7,7,0,0,0-3.54-.2c-2,.61-3,2.76-3.74,4.56C224.44,224.77,225.24,225,225.43,224.49Z" transform="translate(0.2 -0.43)"/><path d="M229.83,233.71a137,137,0,0,1,17.77-1.13c2.07,0,4.29-.28,6-1.63a4.69,4.69,0,0,0,1.82-4.64c-.11-.52-.91-.3-.8.22.53,2.52-1.74,4.37-4,4.92s-4.79.27-7.14.33a105.17,105.17,0,0,0-13.84,1.16C229.09,233,229.33,233.8,229.83,233.71Z" transform="translate(0.2 -0.43)"/><path d="M250.84,228.22c2-1.47,4.12-2.93,6.17-4.39a8.52,8.52,0,0,1,2.27-4.73,6.45,6.45,0,0,1,3.4-2.07c1.83-.36,3.24.47,4.81,1.19,2.55,1.16,5,1.6,9.88,2.54,3.85.72,5.79,1.08,8.55.94,3.77-.22,6.45-1.22,8.05.36a2.59,2.59,0,0,1,.81,1.82c-.09,1.16-1.33,1.91-2.33,2.49a36.19,36.19,0,0,1-6.78,3.2c-6.14,1.79-9.24,2.71-11.9,2.93a38.46,38.46,0,0,1-8.93-.33c-1.08,3.7-4.35,6.07-7.42,5.88C253.46,237.8,249.81,233.35,250.84,228.22Z" transform="translate(0.2 -0.43)"/><path class="cls-5" d="M211.1,203.81c.61-1.85,1.74-4.2,3.87-5a5.17,5.17,0,0,1,3.08-.06c2.57.64,7.85-.28,18.4-2.07,5.23-.88,11.84-2.18,19.45-4.12,0,1.41,0,3.26-.08,5.42-.2,4.83-.7,8.47-.81,9.33a74.64,74.64,0,0,1-3.81,16c-.64,1.76-1.28,3.23-1.72,4.22a15.45,15.45,0,0,1,3.38,2.1,19,19,0,0,1,6.47,11.24c-.66.8-1.66,2-2.93,3.34-5.15,5.47-9.91,8.53-19,14.14-5.58,3.45-9.68,6-16.24,9.83-8,4.69-14.41,8.34-22.44,10.63a23.3,23.3,0,0,1-9.13.94,15.74,15.74,0,0,1-15-12.59c-1.25-4.45-.78-8.62.39-12.95.8-3,3.7-13.12,13.8-24.47,2-2.26,7.78-7.37,19.24-17.59,2.76-2.46,5-4.47,6.55-5.8C213.45,205.52,212.29,204.66,211.1,203.81Z" transform="translate(0.2 -0.43)"/><path class="cls-6" d="M248.73,196.16a100.66,100.66,0,0,1-3.21,10.05c-14.14,37.39-45.74,53.54-43.16,57.57,1.88,3,19.92-4.44,32.92-12.26a119.78,119.78,0,0,0,21.84-16.84,19.44,19.44,0,0,0-3.77-4.14,19,19,0,0,0-4.65-2.79,28.67,28.67,0,0,0,3-5.53,34.84,34.84,0,0,0,1.9-6.57,100.82,100.82,0,0,0,1.78-10.88,106.13,106.13,0,0,0,.58-12.15C253.52,193.78,251.14,195,248.73,196.16Z" transform="translate(0.2 -0.43)"/><path d="M255.51,192.59a109.13,109.13,0,0,1-1,15.63,63.41,63.41,0,0,1-3.21,13.89c-1.86,4.78-5,8.26-8.88,11.55s-7.89,6.62-11.85,9.91q-6.81,5.67-13.64,11.32c-.41.33.17.91.58.58,8.33-6.9,16.66-13.78,24.93-20.76,3.66-3.1,7-6.3,9-10.75A53.72,53.72,0,0,0,255,210.3a105,105,0,0,0,1.33-17.71A.42.42,0,0,0,255.51,192.59Z" transform="translate(0.2 -0.43)"/><path d="M211.57,204.58c1.13.61,2.27,1.21,3.43,1.82.47.25.89-.47.42-.72L212,203.86C211.51,203.61,211.1,204.33,211.57,204.58Z" transform="translate(0.2 -0.43)"/><path d="M215,206.07c-9.85,8-20.2,15.93-28.42,25.65-7.08,8.37-12.92,19-12.89,30.21,0,4.95,1.35,10.11,5,13.62s8.93,4.91,13.92,4.66c6.08-.3,11.87-2.7,17.29-5.35,5.81-2.85,11.32-6.22,16.85-9.56,11.4-6.9,24.13-13.33,32.68-23.86.33-.41-.25-1-.58-.58-7.17,8.84-17.24,14.5-26.84,20.3-5.29,3.2-10.52,6.46-15.91,9.5a78.91,78.91,0,0,1-16.63,7.51c-5.48,1.58-11.6,1.91-16.77-.83-5-2.59-7.53-7.62-8.05-13.09-1-11,4.53-22,11.26-30.43,8.38-10.46,19.34-18.8,29.69-27.2C216,206.32,215.42,205.74,215,206.07Z" transform="translate(0.2 -0.43)"/><path d="M249.29,227.91A17.4,17.4,0,0,1,259,241c.08.53.89.31.8-.22a18,18,0,0,0-10-13.58C249.23,227,248.82,227.69,249.29,227.91Z" transform="translate(0.2 -0.43)"/><path d="M251,228.63a13,13,0,0,0,2.93-1.9c1.11-.86,2.24-1.69,3.35-2.54.41-.34,0-1.05-.42-.72-1,.74-2,1.49-3,2.26a12.55,12.55,0,0,1-3.1,2.1C250.25,228,250.45,228.82,251,228.63Z" transform="translate(0.2 -0.43)"/><path d="M257.64,223.85a24.93,24.93,0,0,1,2.11-4.72c1.21-2,3-1.82,5.09-1.3,3.18.8,6.22,2,9.43,2.74a67.3,67.3,0,0,0,19,1.43c.52,0,.52-.85,0-.82A66.44,66.44,0,0,1,271,218.86c-1.74-.5-3.43-1.14-5.17-1.63a9.56,9.56,0,0,0-4.29-.56,4,4,0,0,0-2.57,2.24,26.14,26.14,0,0,0-2.08,4.72C256.67,224.13,257.48,224.35,257.64,223.85Z" transform="translate(0.2 -0.43)"/><path d="M258.83,237.19c2.08-1.57,4.13-3.15,6.2-4.72.42-.33,0-1.05-.41-.72l-6.2,4.72C258,236.8,258.42,237.52,258.83,237.19Z" transform="translate(0.2 -0.43)"/><path d="M265,232.28c6.75,1.46,13.64.36,20-2.07,2.9-1.11,6.22-2.35,8.71-4.23,1.75-1.3,2-3.78-.3-4.67-.5-.19-.72.61-.22.8a1.63,1.63,0,0,1,.52,2.77,6,6,0,0,1-1.55,1.1c-1.13.64-2.29,1.22-3.46,1.77a52.43,52.43,0,0,1-7.63,2.92,32.27,32.27,0,0,1-15.91.83C264.7,231.36,264.48,232.17,265,232.28Z" transform="translate(0.2 -0.43)"/><path class="cls-4" d="M192.89,113a53.46,53.46,0,0,1,18.87-10.16,39.3,39.3,0,0,1,15.39-2,38,38,0,0,1,19.34,7.57,40,40,0,0,1,8,7.82q.45,29,1.24,58.1c.17,6,.33,12,.53,17.92A54.3,54.3,0,0,1,239.88,199c-16.33,3.73-29.91-1.24-35.42-3.64a129.69,129.69,0,0,0-1.83-21c-2.43-14.47-6.22-20.3-8.6-32.75A101.86,101.86,0,0,1,192.89,113Z" transform="translate(0.2 -0.43)"/><path class="cls-5" d="M242.92,117.79c-1.35,1.49-1.6,3.17-1.52,9.63,0,6.8.41,11.44.64,16.82.16,3.9.3,7,.22,11-.09,5.08-.42,9.25-.72,12-2.71,3-5.12,5.41-6.92,7.12a81.63,81.63,0,0,1-14.94,11.88c-2.58,1.52-4.79,2.62-6.28,3.31-1.36-.22-2.88-.55-4.54-1-3.93-1-5.56-1.88-8.52-1.88-.89,0-3.68,0-4,1-.25.83,1.3,2.13,2.52,2.76s1.63.42,2.76.94a6.91,6.91,0,0,1,2.6,2.16c-.52.74-1.32,1.87-2.21,3.34-1,1.71-1.24,2.37-2.43,4.42a22.2,22.2,0,0,1-2.44,3.78c-.86.8-1.38,1-5.23,2.68s-4.48,2.1-4.48,2.57.75.58,3.71,1.85a33.12,33.12,0,0,0,3.87,1.6,7.12,7.12,0,0,0,3.63.47,5.81,5.81,0,0,0,3.45-2.43,2.71,2.71,0,0,0,1.66.71,2.44,2.44,0,0,0,1.58-.58c1.74-1.24,2.6-3.53,4.32-6.1a28.67,28.67,0,0,1,3.13-3.89,25.71,25.71,0,0,1,2.79-2.6c1-.22,2.41-.55,4.12-1.05a91.75,91.75,0,0,0,15.53-6.13c2.35-1.13,5-2.62,10.29-5.58,4.59-2.56,7-4,9.08-6.82A22.08,22.08,0,0,0,257,175.8a26.9,26.9,0,0,0,2-7.45c.28-1.91.28-3,.31-8.92.05-7.59.05-6.68.05-7.46,0-11.12-.61-10.13-.8-20.35a31.16,31.16,0,0,0-.86-6.9,15.07,15.07,0,0,0-2.54-6,8.31,8.31,0,0,0-3.32-2.93A8.2,8.2,0,0,0,242.92,117.79Z" transform="translate(0.2 -0.43)"/><path class="cls-7" d="M251.8,115.77a61.39,61.39,0,0,1,2,9.14c.67,4.61.92,9.69-.58,23-1.24,11.1-1.85,16.65-3.46,21.84-2.29,7.4-3.95,12.79-9,17-3.26,2.73-6.83,4-14,6.51a111.33,111.33,0,0,1-12.87,3.65,52.35,52.35,0,0,1-20.25,16.43,6.43,6.43,0,0,0,8.88-1.57,3,3,0,0,0,2.16.66c1.77-.28,2.71-2.79,3.18-3.92,1-2.35,3.07-5.58,7.67-9.11a121.59,121.59,0,0,0,11.95-3.84,115.53,115.53,0,0,0,16-7.74c7.72-4.3,9.46-6.07,10.73-7.78a24,24,0,0,0,3.71-7.73c.75-2.52.89-5.33,1.16-10.83.2-4.09.2-7.23.2-9.61,0-4.09-.09-7.12-.17-9.75-.11-3.81-.33-8.28-.88-13.64-.42-3.89-.72-5.44-1.61-7.18A15,15,0,0,0,251.8,115.77Z" transform="translate(0.2 -0.43)"/><path d="M242.51,117.68c-1.44,3.59-1.61,7.45-1.53,11.29.09,4.23.31,8.42.5,12.65.39,8.56.67,17.15-.36,25.68-.05.52.78.52.83,0,1-8.34.78-16.76.39-25.13-.19-4.14-.41-8.28-.53-12.45-.11-4,0-8,1.5-11.82C243.5,117.4,242.7,117.18,242.51,117.68Z" transform="translate(0.2 -0.43)"/><path d="M242.73,166.58a26.74,26.74,0,0,0-6.56,5.58,82.33,82.33,0,0,1-6.64,6.57,68.09,68.09,0,0,1-16.22,10.41c-.49.22-.05.94.42.72A68.88,68.88,0,0,0,229.39,180,73.2,73.2,0,0,0,236,173.6c2.15-2.35,4.31-4.73,7.14-6.27C243.61,167,243.2,166.31,242.73,166.58Z" transform="translate(0.2 -0.43)"/><path d="M213.51,189.2c-3-.64-6.12-1.3-9.16-2-1.52-.33-3.07-.75-4.62-1a3.89,3.89,0,0,0-2.85.3,2,2,0,0,0-.14,3.37,9.25,9.25,0,0,0,3,1.33,7.71,7.71,0,0,1,4.15,2.59c.33.42,1.05,0,.72-.41a7.63,7.63,0,0,0-3.63-2.65,19.36,19.36,0,0,1-3.1-1.11c-.66-.36-1.52-.91-1-1.9s1.66-.86,2.52-.72c2.29.33,4.59,1,6.89,1.52s4.7,1,7.05,1.52C213.81,190.11,214,189.31,213.51,189.2Z" transform="translate(0.2 -0.43)"/><path d="M203.21,193.92c-1.21,2.24-2.46,4.45-3.68,6.68-.61,1.08-1.13,2.24-1.85,3.29a6.65,6.65,0,0,1-2.91,2.18c-2.18,1-4.53,1.85-6.64,3-.94.55-1.55,1.54-.74,2.51,1,1.19,3,.72,4.28.5a20.25,20.25,0,0,0,5.23-1.69,21,21,0,0,0,8.5-7.45c.3-.44-.42-.86-.72-.42a20,20,0,0,1-7.44,6.8,19.67,19.67,0,0,1-4.57,1.71,13.34,13.34,0,0,1-2.77.44c-.85.06-1.08.17-1.49-.69-.53-.5-.47-.83.14-1l.55-.25c1.77-.83,3.57-1.63,5.34-2.46a8.8,8.8,0,0,0,3.68-2.43,38.73,38.73,0,0,0,2.77-4.81c1-1.85,2.05-3.7,3-5.52C204.18,193.86,203.46,193.45,203.21,193.92Z" transform="translate(0.2 -0.43)"/><path d="M215.86,200a120.93,120.93,0,0,0,21.42-8.26c3.4-1.71,6.72-3.56,10-5.6,2.9-1.83,6-3.68,8-6.47.3-.44-.41-.85-.72-.41-2.16,2.93-5.53,4.83-8.58,6.71s-6.31,3.67-9.57,5.3a120.65,120.65,0,0,1-20.78,7.95C215.14,199.3,215.36,200.11,215.86,200Z" transform="translate(0.2 -0.43)"/><path d="M243.06,118.42c2.3-4.5,8.19-3.48,11.1-.27,3.48,3.86,3.65,9.52,4,14.44a233.86,233.86,0,0,1,.33,32.31c-.33,5.22-1.11,10.74-4.6,14.88-.33.42.25,1,.59.58,3.12-3.75,4.2-8.5,4.64-13.25a172.67,172.67,0,0,0,.53-18.34c-.06-6.38-.36-12.78-.94-19.14-.44-4.77-1.3-10-5.26-13.22-3.37-2.71-9-2.63-11.18,1.6C242.09,118.48,242.81,118.89,243.06,118.42Z" transform="translate(0.2 -0.43)"/><path d="M190.93,212.59c2,.91,4.45,2.29,6.75,2.29s3.85-1.85,5.34-3.23q6.43-6,12.87-11.9c.38-.36-.2-.94-.58-.58l-10.88,10.08c-1.6,1.46-3.26,3.56-5.28,4.47-2.38,1.08-5.65-.86-7.78-1.82C190.87,211.65,190.46,212.37,190.93,212.59Z" transform="translate(0.2 -0.43)"/><path d="M202.19,212c.91,1.71,2.93,1,4-.17a82.53,82.53,0,0,0,5.31-7.81c.3-.44-.42-.86-.72-.42l-3.24,4.81c-.61.88-3.29,5.66-4.59,3.17C202.66,211.12,201.94,211.54,202.19,212Z" transform="translate(0.2 -0.43)"/><path d="M195.77,210.65a3.11,3.11,0,0,0,2.77.45,2.12,2.12,0,0,0,.88-1.08,4.31,4.31,0,0,1,1.5-1.8c.44-.3,0-1-.42-.71a4.69,4.69,0,0,0-1.6,1.71c-.28.52-.45,1.16-1.17,1.21a3.11,3.11,0,0,1-1.55-.49C195.74,209.72,195.3,210.41,195.77,210.65Z" transform="translate(0.2 -0.43)"/><path class="cls-5" d="M190.1,52.87a43.85,43.85,0,0,0-2.24,6.32,61.1,61.1,0,0,0-2,10,47.55,47.55,0,0,0-.36,9.39,36.52,36.52,0,0,0,1.41,8.25,26.31,26.31,0,0,0,4.63,9.53,24,24,0,0,0,7.61,6.27,25.77,25.77,0,0,0,5.11-.41,26.15,26.15,0,0,0,8-3c.25,1.4.58,2.89,1,4.44a58.93,58.93,0,0,0,3,8.45,15.18,15.18,0,0,0,3.93-1.19,16,16,0,0,0,7.52-7.67c-.41-1.6-.74-3.34-1-5.14a60.46,60.46,0,0,1-.11-17.56,7.32,7.32,0,0,0,2.68.38,7.74,7.74,0,0,0,4.6-2c.66-.55,3.68-3.23,3.57-7.21,0-.93-.09-3.23-1.72-4.47s-3.57-.72-5.06-.41a11.17,11.17,0,0,0-3.77,1.57,21.1,21.1,0,0,0,0-12.48c-.38-1.22-3-9-10.54-12.29C206,39,193.64,45.77,190.1,52.87Z" transform="translate(0.2 -0.43)"/><path class="cls-8" d="M221.37,53a62.89,62.89,0,0,1,0,10.72,60.12,60.12,0,0,1-7.89,25A57,57,0,0,1,202,102.49a28.16,28.16,0,0,0,5.79-1.35,29.41,29.41,0,0,0,11.76-7.85,45.76,45.76,0,0,0,1.93,10.88,50.75,50.75,0,0,0,1.8,4.78c1.47-1.9,2.91-3.81,4.37-5.74-.3-1.8-.58-3.7-.77-5.66a91.9,91.9,0,0,1-.3-16.27,12.7,12.7,0,0,0,5-.83c8.36-3.31,13.11-16.48,8.6-23.66a11.29,11.29,0,0,0-3.23-3.23C230.58,49.3,222.53,52.53,221.37,53Z" transform="translate(0.2 -0.43)"/><path class="cls-4" d="M188.08,58.36a22,22,0,0,1-.53-10A20,20,0,0,1,191.7,39c4.46-5.1,10.05-4.14,17.3-6.73,4.59-1.63,10.9-5.06,17.29-13.12l-1.74,9a11.26,11.26,0,0,0,7.77-.69c5.7-2.79,6.2-9.52,6.23-9.83a17.41,17.41,0,0,1-.86,15.91c.33.36,2.1,2.18,4.15,1.9,2.49-.33,4.82-3.72,4.15-8.11a20.27,20.27,0,0,1,1,7.59,20.63,20.63,0,0,1-2.43,8.64,4.49,4.49,0,0,0,7.44-2.07,29.21,29.21,0,0,1-1.55,7.6c-1.46,4.14-2.68,4.47-3.29,7.42-1,4.64,1.52,6.22.86,10.36-.56,3.48-2.82,5.66-5.7,8.45A39.84,39.84,0,0,1,226.1,84.6c.22-1.55.47-3.1.69-4.64a5.65,5.65,0,0,0,3.13.85c2.82-.11,4.59-2.62,5.53-4,1.08-1.52,2.88-4.12,1.91-6.91a6,6,0,0,0-3.13-3.28c-2.49-1.05-5.7-.11-7.77,2.43-1.17-4.56-2.3-9.09-3.46-13.65L211.24,48a22.3,22.3,0,0,0-23.16,10.35Z" transform="translate(0.2 -0.43)"/><path d="M187.66,58.25c-2.35,8.78-3.76,18.12-1.6,27.09,1.77,7.29,6.25,15.6,13.89,18,.5.16.72-.64.22-.8-7.67-2.38-11.95-11-13.53-18.31-1.86-8.56-.44-17.4,1.8-25.74C188.6,58,187.8,57.75,187.66,58.25Z" transform="translate(0.2 -0.43)"/><path d="M200.56,103.18a30.29,30.29,0,0,0,26.4-23,.42.42,0,0,0-.81-.22,29.45,29.45,0,0,1-25.59,22.37C200,102.41,200,103.23,200.56,103.18Z" transform="translate(0.2 -0.43)"/><path d="M226.24,80.43c5.7,3.47,11.26-3.82,11.62-8.92A5,5,0,0,0,234.12,66a7,7,0,0,0-7,1.9c-.36.39.22,1,.58.58a6.15,6.15,0,0,1,5.81-1.79,4.69,4.69,0,0,1,3,1.85,5.64,5.64,0,0,1,.44,3.75c-.66,4.28-5.42,10.41-10.29,7.43A.43.43,0,0,0,226.24,80.43Z" transform="translate(0.2 -0.43)"/><path d="M226.18,80.37a61,61,0,0,0,1.13,22.92.42.42,0,0,0,.81-.22A59.75,59.75,0,0,1,227,80.59C227,80.07,226.24,79.85,226.18,80.37Z" transform="translate(0.2 -0.43)"/><path d="M211.87,99.29a61.51,61.51,0,0,0,4,13c.22.5.94.06.72-.41a59.3,59.3,0,0,1-3.93-12.81C212.57,98.54,211.79,98.76,211.87,99.29Z" transform="translate(0.2 -0.43)"/><path d="M216.47,112.4a15.54,15.54,0,0,0,11.87-9.52c.19-.5-.61-.72-.8-.23a14.69,14.69,0,0,1-11.29,8.95C215.72,111.68,215.94,112.49,216.47,112.4Z" transform="translate(0.2 -0.43)"/><path d="M212.54,100.25c1.13.06,1.91-.72,2.77-1.38a36.06,36.06,0,0,0,3.21-2.81,19.17,19.17,0,0,0,4.31-6.41c.2-.5-.61-.72-.8-.22a17.7,17.7,0,0,1-3.79,5.71,27.59,27.59,0,0,1-2.3,2.16c-.88.74-2.16,2.18-3.4,2.12C212,99.4,212,100.22,212.54,100.25Z" transform="translate(0.2 -0.43)"/><path d="M212.59,99.81a47.72,47.72,0,0,0,6.59-5.16c.39-.36-.19-1-.58-.58a45.45,45.45,0,0,1-6.42,5.05C211.71,99.37,212.15,100.09,212.59,99.81Z" transform="translate(0.2 -0.43)"/><path d="M196.32,59.85a114.24,114.24,0,0,0-2.63,21.4.43.43,0,0,0,.78.22c1.08-1.71,2.16-3.45,3.24-5.16a.41.41,0,0,0-.72-.41c-1.08,1.71-2.16,3.45-3.24,5.16.25.08.53.14.77.22a113.57,113.57,0,0,1,2.61-21.18C197.24,59.55,196.43,59.33,196.32,59.85Z" transform="translate(0.2 -0.43)"/><path d="M197.43,91.64a10.19,10.19,0,0,1-1.22-4c-.08-1,.14-5,2-3.42,1,.85.86,2.73.89,4a17.45,17.45,0,0,1-.06,1.77,9.68,9.68,0,0,1-.16,1.22c-.72.49-1.28.46-1.64-.06s-1,.19-.58.58c1.19,1.21,2.74,1.27,3.07-.64a16,16,0,0,0,.14-4.14c-.08-1.07-.08-2.62-.88-3.45-1.19-1.21-2.88-.08-3.35,1.22-.86,2.32,0,5.24,1.08,7.34C197,92.52,197.68,92.11,197.43,91.64Z" transform="translate(0.2 -0.43)"/><path d="M203.16,66.78a3.9,3.9,0,0,0,7.47.61c.19-.5-.61-.72-.8-.22a3.07,3.07,0,0,1-5.87-.61C203.85,66.07,203.05,66.26,203.16,66.78Z" transform="translate(0.2 -0.43)"/><path d="M201.53,57.2a5.55,5.55,0,0,1,6.25-3A9.35,9.35,0,0,1,213.59,59a.42.42,0,0,0,.72-.42c-1.47-2.51-3.79-4.74-6.78-5.19a6.4,6.4,0,0,0-6.72,3.4C200.58,57.28,201.3,57.7,201.53,57.2Z" transform="translate(0.2 -0.43)"/><path d="M185.31,58.11c.75-1.54,2.05-3.23,4-3.2s3.15,1.63,4.06,3c.28.44,1,0,.72-.42-1.05-1.68-2.62-3.42-4.78-3.45s-3.77,1.8-4.65,3.62C184.37,58.17,185.09,58.58,185.31,58.11Z" transform="translate(0.2 -0.43)"/><path d="M190.21,70.62c.49,0,.88-1.82.88-4.06s-.39-4.06-.88-4.06-.89,1.82-.89,4.06S189.72,70.62,190.21,70.62Z" transform="translate(0.2 -0.43)"/><path class="cls-5" d="M192.75,114.31c-.08,1-.19,2.43-.25,4.06a104.93,104.93,0,0,0,.06,10.93,97.67,97.67,0,0,0,1.88,14.06c-1.11,1.27-2.77,3.15-4.9,5.36-4,4.22-6.11,6.37-9.43,8.61a24,24,0,0,1-7.67,3.62,11.5,11.5,0,0,1-5.42.36,10.75,10.75,0,0,1-6-4.12c-1.82-2.32-2.24-4.58-3-9a72.5,72.5,0,0,1-.83-10.44c-.08-2.26-.19-5-.13-8.72,0-4.17.27-9.12.88-14.64.28-2.48.66-5.55,1.27-9-.47-.66-1-1.32-1.49-2s-1.08-1.4-1.63-2.09c-1.41,1.18-2.8,2.4-4.21,3.59a3.79,3.79,0,0,1-1.77.27,4.07,4.07,0,0,1-2.63-1.49,5.13,5.13,0,0,1-1.11-3.89c1.91-2.07,3.82-4.12,5.76-6.19a18.61,18.61,0,0,1,.66-4.44A21.55,21.55,0,0,1,154,85.89a13.64,13.64,0,0,1,1.5-2.32,15.61,15.61,0,0,1,3.34-3.25c-.8.35-1,.35-1,.3-.14-.22,1.16-1.85,3-2a4.4,4.4,0,0,1,2.38.53,6,6,0,0,1,1.8,1.32c1.71-1.46,3.43-2.92,5.15-4.36.6.36,1.21.77,1.82,1.19,1.41,1,2.69,1.93,3.82,2.87a12.81,12.81,0,0,1-1.6,1.68,12.28,12.28,0,0,1-3.08,1.94,3.17,3.17,0,0,1,1.94,1.46,4.3,4.3,0,0,1,0,3.07,11.47,11.47,0,0,1-.63,1.93,16.13,16.13,0,0,1-.17,4.5,16.89,16.89,0,0,1-2.57,6.3c0,1.07-.06,2.76,0,4.83.22,8.53,1.46,13.53,2.26,19.82a102.46,102.46,0,0,1,.81,15.63,26.93,26.93,0,0,0,2.57-1.93,33.93,33.93,0,0,0,6.45-7.56c2.16-3.13,3.57-5.44,5.48-8.54C188.44,121.27,190.35,118.2,192.75,114.31Z" transform="translate(0.2 -0.43)"/><path class="cls-8" d="M167.6,89.1c-.58,1.27-1.16,2.56-1.74,3.89-1.69,4-3.07,7.79-4.21,11.43-.25,5.75-.39,10.55-.5,14-.14,5.27.2,11.57.81,24.16.24,5.19.47,8.34,2.9,10.63s6.09,2.43,8.08,2.43c10.63,0,18.57-9,20.75-11.68a39.43,39.43,0,0,1-8.63,10.25,27.48,27.48,0,0,1-11.15,6.27c-4.4,1.16-6.39.91-6.92.8-3.79-.91-5.89-4.06-6.64-5.14-1.8-2.68-2.38-5.47-2.71-11.46-.33-6.16,0-7.79.14-16.26.08-8.09-.22-10.39.38-16,.36-3.29.81-6,1.17-7.82-1.08-1.13-2.16-2.26-3.24-3.37-.91.8-1.85,1.58-2.8,2.38-.6.52-1.24,1-1.85,1.55a4.64,4.64,0,0,1-2.21-.34c-2.22-.94-3.6-3.67-2.91-4.61.44-.63,1.61-.14,3.21-.14,2.77,0,4.62-1.38,8.3-4C160.43,94.18,163.42,92.05,167.6,89.1Z" transform="translate(0.2 -0.43)"/><path d="M192.39,114.09c-6.39,8.81-11.12,18.91-19.2,26.42-.39.36.19.94.58.58,8.14-7.56,12.9-17.72,19.34-26.59C193.45,114.09,192.73,113.67,192.39,114.09Z" transform="translate(0.2 -0.43)"/><path d="M168.6,161.94c11-.72,18.81-9.88,25.4-17.67.33-.41-.25-1-.58-.58-6.39,7.62-14.14,16.73-24.8,17.45C168.07,161.14,168.07,162,168.6,161.94Z" transform="translate(0.2 -0.43)"/><path d="M163.39,84.15a5,5,0,0,0,3.6,4.67.41.41,0,0,0,.22-.8,4.15,4.15,0,0,1-3-3.87C164.2,83.63,163.37,83.63,163.39,84.15Z" transform="translate(0.2 -0.43)"/><path d="M164.25,83.9c.28-2.4,4.57-.66,5.73-.05s2.27,1.16,2.52,2.54a7.41,7.41,0,0,1-.42,3.18.42.42,0,0,0,.81.22c.38-1.38.8-3,.22-4.31s-2.08-2-3.32-2.62a7.61,7.61,0,0,0-4.1-.89,3.72,3.72,0,0,0-1.8.61c-.5.39-.38.66-.47,1.35C163.37,84.43,164.2,84.43,164.25,83.9Z" transform="translate(0.2 -0.43)"/><path d="M171.81,89.4c-.09,2.1.38,4.14-.11,6.24a23.44,23.44,0,0,1-2.36,5.47c-.25.47.47.88.72.41a25.48,25.48,0,0,0,2.44-5.66c.52-2.15.05-4.28.14-6.46A.42.42,0,0,0,171.81,89.4Z" transform="translate(0.2 -0.43)"/><path d="M169.34,101.14c-.63,14.55,3.55,28.8,2.88,43.35,0,.52.8.52.83,0,.67-14.55-3.51-28.8-2.88-43.35C170.2,100.61,169.37,100.61,169.34,101.14Z" transform="translate(0.2 -0.43)"/><path d="M155.76,101.44a28.36,28.36,0,0,0,2.71,3.29c.36.38.94-.2.58-.58a28,28,0,0,1-2.57-3.12C156.14,100.58,155.43,101,155.76,101.44Z" transform="translate(0.2 -0.43)"/><path d="M158.94,104.5a155.06,155.06,0,0,0-2.33,27.2c0,4.53.25,9.09.7,13.59.36,3.84.8,7.87,2.82,11.24,1.83,3.07,5,5.38,8.69,5.3.52,0,.52-.85,0-.83-5.12.14-8.41-4.41-9.6-8.89-1.33-4.91-1.44-10.27-1.64-15.32a152.12,152.12,0,0,1,2.19-32C159.82,104.2,159,104,158.94,104.5Z" transform="translate(0.2 -0.43)"/><path d="M153.71,92.11c-2.6,2.18-5.12,4.47-7.5,6.87-.39.39.22,1,.58.58,2.41-2.4,4.9-4.69,7.5-6.87C154.71,92.35,154.12,91.77,153.71,92.11Z" transform="translate(0.2 -0.43)"/><path d="M146,99.73a5.17,5.17,0,0,0,5.26,5.88.42.42,0,0,0,0-.83,4.37,4.37,0,0,1-4.43-5C146.87,99.2,146,99.2,146,99.73Z" transform="translate(0.2 -0.43)"/><path d="M146.74,99.53a4.49,4.49,0,0,1,4.31,5.5c-.11.52.69.75.81.22a5.3,5.3,0,0,0-5.12-6.54A.41.41,0,0,0,146.74,99.53Z" transform="translate(0.2 -0.43)"/><path d="M152.19,105.11c3.15-2.87,6.36-5.71,9.43-8.67a57.51,57.51,0,0,0,4-4.22c.7-.8,2.44-2.38,2.47-3.48a.43.43,0,0,0-.2-.36.39.39,0,0,0-.14-.06.4.4,0,0,0-.49.06.35.35,0,0,0-.09.11c-.33.41.25,1,.58.58a.53.53,0,0,0,.09-.11,2.83,2.83,0,0,1-.5.05c-.06-.25-.14-.25-.25,0s-.28.39-.44.58c-.33.42-.64.83-1,1.24-.55.69-1.16,1.36-1.74,2-1.22,1.32-2.49,2.57-3.79,3.78-2.83,2.65-5.7,5.22-8.55,7.84C151.19,104.89,151.8,105.47,152.19,105.11Z" transform="translate(0.2 -0.43)"/><path d="M152.55,93.65c.19-1.32.38-2.65.58-4a7.6,7.6,0,0,1,.8-3c1.27-2,3.07-.58,4,.8.42.58.8,1.22,1.22,1.8.22.33,1.3,1.52,1.16,1.93a4.41,4.41,0,0,0,.39-.3h-.14c-.53,0-.53.8,0,.83h.14a.4.4,0,0,0,.39-.31c.19-.69-.28-1.1-.64-1.65-.69-1-1.36-2.07-2.08-3.07s-1.71-2-3.1-1.88a3.13,3.13,0,0,0-2.54,2.35,33.62,33.62,0,0,0-1.05,6.24C151.66,94,152.46,94.18,152.55,93.65Z" transform="translate(0.2 -0.43)"/><path d="M153.85,90.53c.75,1.47,2,3,3.76,3.07a3,3,0,0,0,3.24-2.16.42.42,0,0,0-.8-.22A2.3,2.3,0,0,1,157,92.63a4.61,4.61,0,0,1-2.43-2.48A.41.41,0,1,0,153.85,90.53Z" transform="translate(0.2 -0.43)"/><path d="M154.87,85.15c.14-1.36,1.69-1.71,2.74-1.36A7.4,7.4,0,0,1,160.35,86c.61.63,1.8,1.52,2,2.4.22,1.19-1.28,2-2.27,2.29a.42.42,0,0,0,.22.8c1.22-.36,3-1.43,3.18-2.87.08-.58-.28-.88-.66-1.3-.78-.82-1.53-1.63-2.33-2.43-1.08-1.1-2.46-2.29-4.12-2a2.56,2.56,0,0,0-2.3,2.29C154,85.67,154.82,85.67,154.87,85.15Z" transform="translate(0.2 -0.43)"/><path d="M156.37,83.1c.38-.44.58-1,.94-1.46.88-1.1,2.27-.08,3.18.58,1.77,1.24,3.65,3.51,2,5.66-.31.44.41.86.72.42,1.71-2.32,0-5-1.94-6.49-.91-.69-2.3-1.94-3.54-1.58s-1.3,1.58-2,2.32C155.43,82.91,156,83.49,156.37,83.1Z" transform="translate(0.2 -0.43)"/><path d="M159.16,80.59c1-1.19,2.24-2.43,3.74-1.19a6.34,6.34,0,0,1,2,3.12.42.42,0,0,0,.8-.22,6.36,6.36,0,0,0-3.15-4.11c-1.64-.66-3,.63-4,1.82C158.25,80.4,158.83,81,159.16,80.59Z" transform="translate(0.2 -0.43)"/><path d="M165.28,80.7c1.71-1.46,3.43-2.93,5.14-4.36.42-.36-.19-.94-.58-.58-1.71,1.46-3.43,2.93-5.15,4.36C164.28,80.48,164.89,81.06,165.28,80.7Z" transform="translate(0.2 -0.43)"/><path d="M171.39,84.24a49.23,49.23,0,0,0,4.68-3.84c.39-.36-.2-.94-.58-.58a49.5,49.5,0,0,1-4.51,3.7C170.53,83.82,171,84.54,171.39,84.24Z" transform="translate(0.2 -0.43)"/><path class="cls-9" d="M183.82,82.17A16.68,16.68,0,1,0,167.1,65.49,16.7,16.7,0,0,0,183.82,82.17Z" transform="translate(0.2 -0.43)"/><path d="M173.69,67.53q9.21-5.88,18.84-11.1c.47-.25.06-1-.41-.72q-9.63,5.17-18.85,11.1C172.83,67.12,173.25,67.83,173.69,67.53Z" transform="translate(0.2 -0.43)"/><path d="M174.38,74.76c5.06-3.7,10.18-7.26,15.41-10.74.45-.3,0-1-.41-.72q-7.8,5.22-15.42,10.75C173.52,74.35,173.94,75.07,174.38,74.76Z" transform="translate(0.2 -0.43)"/></g></svg>