<svg id="Capa_1" data-name="Capa 1" xmlns="http://www.w3.org/2000/svg" viewBox="0 0 227.89 16"><defs><style>.cls-1,.cls-2{fill:#495057;}.cls-2{isolation:isolate;opacity:0.8;}</style></defs><path class="cls-1" d="M17,8.74a8,8,0,1,1-2.34-5.66A8,8,0,0,1,17,8.74Zm-8-4a1,1,0,0,0-.37.08.93.93,0,0,0-.49.54.94.94,0,0,0,0,.37l.35,3.51a.5.5,0,0,0,.18.36.53.53,0,0,0,.74,0,.54.54,0,0,0,.18-.36L9.9,5.73A.88.88,0,0,0,9.67,5a.89.89,0,0,0-.3-.22A1,1,0,0,0,9,4.74Zm0,6a1,1,0,0,0-.71.29,1,1,0,0,0-.29.71,1,1,0,0,0,1,1,1,1,0,0,0,.71-.29,1,1,0,0,0,.29-.71,1,1,0,0,0-1-1Z" transform="translate(-1 -0.74)"/><path class="cls-2" d="M30.83,6.19a1.34,1.34,0,0,0-.62-1,2.39,2.39,0,0,0-1.34-.36,2.48,2.48,0,0,0-1,.19,1.58,1.58,0,0,0-.67.51,1.24,1.24,0,0,0-.24.75,1.08,1.08,0,0,0,.17.6,1.53,1.53,0,0,0,.43.41,2.89,2.89,0,0,0,.56.27,5.31,5.31,0,0,0,.53.17l.89.24c.22.06.48.14.75.24a3.71,3.71,0,0,1,.81.43,2.23,2.23,0,0,1,.64.69,2,2,0,0,1,.25,1,2.28,2.28,0,0,1-.37,1.28,2.54,2.54,0,0,1-1.07.91,4,4,0,0,1-1.71.33,4.05,4.05,0,0,1-1.63-.3,2.58,2.58,0,0,1-1.07-.84,2.36,2.36,0,0,1-.44-1.26h1.09a1.41,1.41,0,0,0,.33.82,1.81,1.81,0,0,0,.75.47,2.78,2.78,0,0,0,1,.16,2.85,2.85,0,0,0,1.08-.2,1.93,1.93,0,0,0,.77-.55,1.37,1.37,0,0,0,.28-.84,1,1,0,0,0-.25-.7,1.76,1.76,0,0,0-.63-.45,8.63,8.63,0,0,0-.86-.3l-1.08-.3a4,4,0,0,1-1.61-.84,1.85,1.85,0,0,1-.6-1.43,2.1,2.1,0,0,1,.4-1.28,2.6,2.6,0,0,1,1.07-.85,3.55,3.55,0,0,1,1.51-.31,3.44,3.44,0,0,1,1.5.31,2.51,2.51,0,0,1,1,.81,2,2,0,0,1,.41,1.18Zm5.4,6.69a2.84,2.84,0,0,1-1.55-.43,2.79,2.79,0,0,1-1-1.18,3.91,3.91,0,0,1-.38-1.77,4,4,0,0,1,.38-1.79,2.87,2.87,0,0,1,5.18,0A4,4,0,0,1,39.2,9.5a3.91,3.91,0,0,1-.38,1.77,2.79,2.79,0,0,1-1,1.18A2.84,2.84,0,0,1,36.23,12.88Zm0-.91a1.73,1.73,0,0,0,1.11-.34,2.07,2.07,0,0,0,.64-.91,3.65,3.65,0,0,0,0-2.44,2,2,0,0,0-.64-.92,1.94,1.94,0,0,0-2.22,0,2,2,0,0,0-.64.92,3.65,3.65,0,0,0,0,2.44,2.07,2.07,0,0,0,.64.91A1.73,1.73,0,0,0,36.23,12Zm5.51-8v8.73h-1V4Zm4.5,8.87a2.9,2.9,0,0,1-1.56-.43,2.85,2.85,0,0,1-1-1.18,4.05,4.05,0,0,1-.37-1.77,4.17,4.17,0,0,1,.37-1.79,2.76,2.76,0,0,1,2.6-1.6,2.76,2.76,0,0,1,2.59,1.6A4,4,0,0,1,49.2,9.5a3.91,3.91,0,0,1-.37,1.77,2.79,2.79,0,0,1-1,1.18A2.84,2.84,0,0,1,46.24,12.88Zm0-.91a1.73,1.73,0,0,0,1.11-.34,2.07,2.07,0,0,0,.64-.91,3.65,3.65,0,0,0,0-2.44,2,2,0,0,0-.64-.92,1.94,1.94,0,0,0-2.22,0,2,2,0,0,0-.64.92,3.65,3.65,0,0,0,0,2.44,2.07,2.07,0,0,0,.64.91A1.73,1.73,0,0,0,46.24,12Zm8.88-8v8.73h-1V4Zm4.59,8.87a3.1,3.1,0,0,1-1.64-.42,2.87,2.87,0,0,1-1-1.18,4,4,0,0,1-.36-1.76A4.19,4.19,0,0,1,57,7.74a3,3,0,0,1,1-1.2,2.78,2.78,0,0,1,1.55-.43,3.2,3.2,0,0,1,1,.17,2.44,2.44,0,0,1,.91.55,2.71,2.71,0,0,1,.65,1,4.11,4.11,0,0,1,.25,1.54v.43H57.37V8.94h4a2.12,2.12,0,0,0-.22-1,1.65,1.65,0,0,0-.62-.69,1.94,1.94,0,0,0-2,0,1.89,1.89,0,0,0-.66.77,2.18,2.18,0,0,0-.24,1v.58a2.83,2.83,0,0,0,.26,1.26,1.82,1.82,0,0,0,.72.78,2.15,2.15,0,0,0,1.07.26,2,2,0,0,0,.71-.11,1.59,1.59,0,0,0,.56-.34,1.39,1.39,0,0,0,.36-.57l1,.27a2.13,2.13,0,0,1-.51.87,2.45,2.45,0,0,1-.9.58A3.19,3.19,0,0,1,59.71,12.88Zm7.08-6.69v.86H63.4V6.19Zm-2.4-1.56h1v6.23a1.32,1.32,0,0,0,.12.64.58.58,0,0,0,.32.28,1.23,1.23,0,0,0,.42.07h.28l.17,0,.2.91a2.26,2.26,0,0,1-.28.07,2.11,2.11,0,0,1-.47,0,2,2,0,0,1-.83-.18,1.67,1.67,0,0,1-.68-.56,1.63,1.63,0,0,1-.26-.94Zm3.92,8.11V6.19h1v1h.07A1.57,1.57,0,0,1,70,6.39a2,2,0,0,1,1.06-.3h.53v1l-.24,0a2.25,2.25,0,0,0-.38,0,1.84,1.84,0,0,0-.85.2,1.64,1.64,0,0,0-.59.55,1.48,1.48,0,0,0-.21.79v4.14Zm6.39.15a2.75,2.75,0,0,1-1.13-.23,2,2,0,0,1-.81-.69,1.91,1.91,0,0,1-.3-1.09,1.66,1.66,0,0,1,.23-.91,1.42,1.42,0,0,1,.59-.55,2.67,2.67,0,0,1,.82-.3A7.08,7.08,0,0,1,75,9c.4-.06.72-.09,1-.12a1.72,1.72,0,0,0,.55-.14.37.37,0,0,0,.17-.34v0a1.34,1.34,0,0,0-.34-1,1.42,1.42,0,0,0-1-.35,1.81,1.81,0,0,0-1.13.32,1.84,1.84,0,0,0-.57.67l-1-.34a2.37,2.37,0,0,1,.68-.93,2.68,2.68,0,0,1,.94-.47,3.94,3.94,0,0,1,1-.13,3.29,3.29,0,0,1,.72.08,2.06,2.06,0,0,1,.8.3,1.72,1.72,0,0,1,.64.69,2.61,2.61,0,0,1,.26,1.25v4.31h-1v-.89h0a1.8,1.8,0,0,1-.34.46,1.91,1.91,0,0,1-.64.41A2.29,2.29,0,0,1,74.7,12.89Zm.15-.9a2,2,0,0,0,1-.24,1.56,1.56,0,0,0,.62-.6,1.58,1.58,0,0,0,.21-.78V9.45a.59.59,0,0,1-.28.14,4.53,4.53,0,0,1-.49.11l-.55.07L75,9.82a4.1,4.1,0,0,0-.73.17,1.23,1.23,0,0,0-.55.34.87.87,0,0,0-.2.6.88.88,0,0,0,.39.79A1.7,1.7,0,0,0,74.85,12Zm9.32-4.33-.9.26A1.65,1.65,0,0,0,83,7.48a1.06,1.06,0,0,0-.44-.36A1.54,1.54,0,0,0,81.85,7a1.76,1.76,0,0,0-1,.27.83.83,0,0,0-.4.7.69.69,0,0,0,.28.59,2.06,2.06,0,0,0,.85.36l1,.24a2.73,2.73,0,0,1,1.31.65,1.57,1.57,0,0,1,.43,1.13,1.62,1.62,0,0,1-.33,1,2.1,2.1,0,0,1-.89.7,3.27,3.27,0,0,1-1.34.26,3,3,0,0,1-1.66-.44,2,2,0,0,1-.83-1.27l1-.24a1.31,1.31,0,0,0,.51.79,1.71,1.71,0,0,0,1,.27,1.86,1.86,0,0,0,1.12-.3.87.87,0,0,0,.42-.72A.75.75,0,0,0,83,10.4a1.43,1.43,0,0,0-.73-.35l-1.09-.26a2.64,2.64,0,0,1-1.33-.66A1.64,1.64,0,0,1,79.45,8a1.59,1.59,0,0,1,.31-1,2.12,2.12,0,0,1,.85-.67,3.08,3.08,0,0,1,1.24-.24,2.48,2.48,0,0,1,1.53.42A2.35,2.35,0,0,1,84.17,7.66Zm5,5.08V6.19h1v1h.08a1.73,1.73,0,0,1,.66-.82A2,2,0,0,1,92,6.11a1.77,1.77,0,0,1,1.75,1.11h.07a1.91,1.91,0,0,1,.76-.81,2.27,2.27,0,0,1,1.2-.3,1.94,1.94,0,0,1,1.44.55,2.29,2.29,0,0,1,.56,1.7v4.38h-1V8.36a1.27,1.27,0,0,0-.39-1A1.54,1.54,0,0,0,95.43,7a1.38,1.38,0,0,0-1.07.42A1.5,1.5,0,0,0,94,8.48v4.26H93V8.26a1.16,1.16,0,0,0-.36-.9A1.29,1.29,0,0,0,91.67,7a1.38,1.38,0,0,0-.74.21,1.59,1.59,0,0,0-.54.58,1.67,1.67,0,0,0-.21.85v4.09Zm10.43,0V6.19h1v6.55Zm.51-7.64a.69.69,0,0,1-.51-.2.65.65,0,0,1,0-1,.74.74,0,0,1,1,0,.65.65,0,0,1,0,1A.68.68,0,0,1,100.12,5.1Zm3.34,3.7v3.94h-1V6.19h1v1h.08a1.81,1.81,0,0,1,.7-.8,2.13,2.13,0,0,1,1.21-.31,2.39,2.39,0,0,1,1.16.27,1.83,1.83,0,0,1,.78.82,3.08,3.08,0,0,1,.28,1.38v4.16h-1V8.65a1.66,1.66,0,0,0-.4-1.2,1.42,1.42,0,0,0-1.1-.44,1.74,1.74,0,0,0-.86.21,1.45,1.45,0,0,0-.59.61A2,2,0,0,0,103.46,8.8Zm10.14,1.26V6.19h1v6.55h-1V11.63h-.07a2.08,2.08,0,0,1-.72.85,2,2,0,0,1-1.22.34,2.25,2.25,0,0,1-1.09-.26,1.93,1.93,0,0,1-.75-.82,3,3,0,0,1-.28-1.39V6.19h1v4.09a1.61,1.61,0,0,0,.4,1.15,1.36,1.36,0,0,0,1,.42,1.64,1.64,0,0,0,.76-.19,1.62,1.62,0,0,0,.66-.59A1.75,1.75,0,0,0,113.6,10.06Zm-2-4.75,1-2h1.17l-1.33,2Zm9.49,2.35-.9.26a1.61,1.61,0,0,0-.25-.44,1.16,1.16,0,0,0-.45-.36,1.49,1.49,0,0,0-.72-.14,1.76,1.76,0,0,0-1,.27.84.84,0,0,0-.39.7.71.71,0,0,0,.27.59,2.12,2.12,0,0,0,.85.36l1,.24a2.69,2.69,0,0,1,1.31.65,1.53,1.53,0,0,1,.43,1.13,1.68,1.68,0,0,1-.32,1,2.07,2.07,0,0,1-.9.7,3.25,3.25,0,0,1-1.33.26,2.93,2.93,0,0,1-1.66-.44,1.89,1.89,0,0,1-.83-1.27l1-.24a1.28,1.28,0,0,0,.52.79,1.69,1.69,0,0,0,1,.27,1.83,1.83,0,0,0,1.11-.3.87.87,0,0,0,.42-.72.75.75,0,0,0-.24-.57,1.43,1.43,0,0,0-.73-.35l-1.09-.26a2.56,2.56,0,0,1-1.32-.66A1.6,1.6,0,0,1,116.36,8a1.59,1.59,0,0,1,.31-1,2.15,2.15,0,0,1,.86-.67,3,3,0,0,1,1.23-.24,2.48,2.48,0,0,1,1.53.42A2.29,2.29,0,0,1,121.08,7.66Zm4.29,5.22a2.82,2.82,0,0,1-1.58-.44,2.86,2.86,0,0,1-1-1.2,4,4,0,0,1-.36-1.74,4,4,0,0,1,.37-1.76,2.88,2.88,0,0,1,1-1.2,2.76,2.76,0,0,1,1.55-.43,2.92,2.92,0,0,1,1.24.25,2.39,2.39,0,0,1,.91.72A2.22,2.22,0,0,1,128,8.15h-1a1.5,1.5,0,0,0-.51-.79A1.54,1.54,0,0,0,125.37,7a1.74,1.74,0,0,0-1,.31,2,2,0,0,0-.68.86,3.16,3.16,0,0,0-.25,1.29,3.38,3.38,0,0,0,.24,1.32,2.08,2.08,0,0,0,.69.87,1.72,1.72,0,0,0,1,.31,1.85,1.85,0,0,0,.72-.13,1.65,1.65,0,0,0,.54-.4,1.41,1.41,0,0,0,.31-.61h1a2.38,2.38,0,0,1-.42,1,2.32,2.32,0,0,1-.89.74A2.8,2.8,0,0,1,125.37,12.88Zm8.17-2.82V6.19h1v6.55h-1V11.63h-.06a2.25,2.25,0,0,1-.72.85,2.06,2.06,0,0,1-1.23.34,2.28,2.28,0,0,1-1.09-.26,1.93,1.93,0,0,1-.75-.82,3.16,3.16,0,0,1-.27-1.39V6.19h1v4.09a1.62,1.62,0,0,0,.41,1.15,1.36,1.36,0,0,0,1,.42,1.74,1.74,0,0,0,1.42-.78A1.82,1.82,0,0,0,133.54,10.06ZM137.4,4v8.73h-1V4Zm3.77,8.88a2.71,2.71,0,0,1-1.13-.23,2,2,0,0,1-.81-.69,1.91,1.91,0,0,1-.3-1.09,1.75,1.75,0,0,1,.22-.91,1.51,1.51,0,0,1,.6-.55,2.71,2.71,0,0,1,.81-.3,7.56,7.56,0,0,1,.91-.16c.4-.06.72-.09,1-.12A1.72,1.72,0,0,0,143,8.7a.37.37,0,0,0,.17-.34v0a1.35,1.35,0,0,0-.35-1,1.38,1.38,0,0,0-1-.35,1.81,1.81,0,0,0-1.13.32,2,2,0,0,0-.58.67l-.95-.34a2.37,2.37,0,0,1,.68-.93,2.68,2.68,0,0,1,.94-.47,3.93,3.93,0,0,1,1-.13,3.32,3.32,0,0,1,.73.08,2.12,2.12,0,0,1,.8.3,1.79,1.79,0,0,1,.64.69,2.61,2.61,0,0,1,.26,1.25v4.31h-1v-.89h0a1.8,1.8,0,0,1-.34.46,1.91,1.91,0,0,1-.64.41A2.29,2.29,0,0,1,141.17,12.89Zm.15-.9a1.92,1.92,0,0,0,1-.24,1.52,1.52,0,0,0,.63-.6,1.58,1.58,0,0,0,.21-.78V9.45a.59.59,0,0,1-.28.14,4.24,4.24,0,0,1-.5.11l-.54.07-.42.05a4.1,4.1,0,0,0-.73.17,1.23,1.23,0,0,0-.55.34.87.87,0,0,0-.2.6.88.88,0,0,0,.39.79A1.7,1.7,0,0,0,141.32,12Zm9.32-4.33-.91.26a1.39,1.39,0,0,0-.25-.44,1.13,1.13,0,0,0-.44-.36,1.54,1.54,0,0,0-.72-.14,1.73,1.73,0,0,0-1,.27.83.83,0,0,0-.4.7.71.71,0,0,0,.27.59,2.17,2.17,0,0,0,.86.36l1,.24a2.73,2.73,0,0,1,1.31.65,1.57,1.57,0,0,1,.43,1.13,1.62,1.62,0,0,1-.33,1,2.1,2.1,0,0,1-.89.7,3.3,3.3,0,0,1-1.34.26,3,3,0,0,1-1.66-.44,1.92,1.92,0,0,1-.83-1.27l1-.24a1.31,1.31,0,0,0,.51.79,1.71,1.71,0,0,0,1,.27,1.88,1.88,0,0,0,1.12-.3.87.87,0,0,0,.42-.72.75.75,0,0,0-.24-.57,1.47,1.47,0,0,0-.73-.35l-1.1-.26a2.56,2.56,0,0,1-1.32-.66A1.59,1.59,0,0,1,145.92,8a1.59,1.59,0,0,1,.31-1,2.12,2.12,0,0,1,.85-.67,3.08,3.08,0,0,1,1.24-.24,2.43,2.43,0,0,1,1.52.42A2.31,2.31,0,0,1,150.64,7.66Zm5.65,7.53a2,2,0,0,1-.45,0,.79.79,0,0,1-.28-.08l.26-.88a2.19,2.19,0,0,0,.64.07A.75.75,0,0,0,157,14a2,2,0,0,0,.41-.72l.18-.51-2.42-6.58h1.1l1.8,5.22h.07l1.81-5.22H161l-2.78,7.5a2.79,2.79,0,0,1-.47.84,1.62,1.62,0,0,1-.64.5A1.94,1.94,0,0,1,156.29,15.19Zm14.05-7.53-.91.26a1.39,1.39,0,0,0-.25-.44,1.13,1.13,0,0,0-.44-.36A1.54,1.54,0,0,0,168,7a1.73,1.73,0,0,0-1,.27.83.83,0,0,0-.4.7.71.71,0,0,0,.27.59,2.17,2.17,0,0,0,.86.36l1,.24a2.73,2.73,0,0,1,1.31.65,1.57,1.57,0,0,1,.43,1.13,1.62,1.62,0,0,1-.33,1,2.1,2.1,0,0,1-.89.7,3.3,3.3,0,0,1-1.34.26,3,3,0,0,1-1.66-.44,1.92,1.92,0,0,1-.83-1.27l1-.24a1.37,1.37,0,0,0,.52.79,1.71,1.71,0,0,0,1,.27,1.88,1.88,0,0,0,1.12-.3.87.87,0,0,0,.42-.72.75.75,0,0,0-.24-.57,1.46,1.46,0,0,0-.74-.35l-1.09-.26A2.56,2.56,0,0,1,166,9.13a1.7,1.7,0,0,1-.1-2.11,2.12,2.12,0,0,1,.85-.67A3.08,3.08,0,0,1,168,6.11a2.45,2.45,0,0,1,1.52.42A2.31,2.31,0,0,1,170.34,7.66ZM172,12.74V6.19h1v6.55Zm.51-7.64a.72.72,0,0,1-.51-.2.62.62,0,0,1-.2-.48.62.62,0,0,1,.2-.48.76.76,0,0,1,.51-.2.7.7,0,0,1,.5.2.63.63,0,0,1,0,1A.66.66,0,0,1,172.48,5.1Zm3.34,3.7v3.94h-1V6.19h1v1h.08a1.88,1.88,0,0,1,.7-.8,2.15,2.15,0,0,1,1.21-.31,2.43,2.43,0,0,1,1.17.27,1.81,1.81,0,0,1,.77.82A3,3,0,0,1,180,8.58v4.16h-1V8.65a1.66,1.66,0,0,0-.4-1.2,1.41,1.41,0,0,0-1.1-.44,1.77,1.77,0,0,0-.86.21,1.51,1.51,0,0,0-.59.61A2.07,2.07,0,0,0,175.82,8.8Zm11.32,4.09a2.75,2.75,0,0,1-1.13-.23,2,2,0,0,1-.81-.69,1.91,1.91,0,0,1-.29-1.09,1.66,1.66,0,0,1,.22-.91,1.42,1.42,0,0,1,.59-.55,2.77,2.77,0,0,1,.82-.3,7.08,7.08,0,0,1,.9-.16c.4-.06.73-.09,1-.12A1.72,1.72,0,0,0,189,8.7a.37.37,0,0,0,.17-.34v0a1.34,1.34,0,0,0-.34-1,1.42,1.42,0,0,0-1-.35,1.77,1.77,0,0,0-1.7,1l-1-.34a2.37,2.37,0,0,1,.68-.93,2.68,2.68,0,0,1,.94-.47,3.94,3.94,0,0,1,1-.13,3.29,3.29,0,0,1,.72.08,2.06,2.06,0,0,1,.8.3,1.72,1.72,0,0,1,.64.69,2.61,2.61,0,0,1,.26,1.25v4.31h-1v-.89h0a1.8,1.8,0,0,1-.34.46,2,2,0,0,1-.63.41A2.37,2.37,0,0,1,187.14,12.89Zm.15-.9a2,2,0,0,0,1-.24,1.56,1.56,0,0,0,.62-.6,1.58,1.58,0,0,0,.21-.78V9.45a.55.55,0,0,1-.28.14,4.53,4.53,0,0,1-.49.11l-.54.07-.43.05a4.1,4.1,0,0,0-.73.17,1.19,1.19,0,0,0-.54.34.83.83,0,0,0-.21.6.88.88,0,0,0,.39.79A1.7,1.7,0,0,0,187.29,12Zm7.34.89A2.77,2.77,0,0,1,192,11.24a4.19,4.19,0,0,1-.35-1.74A4.1,4.1,0,0,1,192,7.74a3,3,0,0,1,1-1.2,2.79,2.79,0,0,1,1.56-.43,2.92,2.92,0,0,1,1.24.25,2.39,2.39,0,0,1,.91.72,2.32,2.32,0,0,1,.44,1.07h-1a1.64,1.64,0,0,0-.51-.79A1.54,1.54,0,0,0,194.63,7a1.74,1.74,0,0,0-1,.31,2,2,0,0,0-.68.86,3,3,0,0,0-.25,1.29,3.38,3.38,0,0,0,.24,1.32,2.06,2.06,0,0,0,.68.87,1.77,1.77,0,0,0,1,.31,1.8,1.8,0,0,0,.71-.13,1.59,1.59,0,0,0,.55-.4,1.53,1.53,0,0,0,.31-.61h1a2.4,2.4,0,0,1-1.31,1.78A2.8,2.8,0,0,1,194.63,12.88Zm6.79,0a3.07,3.07,0,0,1-1.63-.42,2.74,2.74,0,0,1-1-1.18,3.9,3.9,0,0,1-.37-1.76,4,4,0,0,1,.37-1.78,2.88,2.88,0,0,1,1-1.2,2.76,2.76,0,0,1,1.55-.43,3.2,3.2,0,0,1,1,.17,2.61,2.61,0,0,1,.91.55,2.71,2.71,0,0,1,.65,1,4.33,4.33,0,0,1,.24,1.54v.43h-5V8.94h4a2.25,2.25,0,0,0-.22-1,1.75,1.75,0,0,0-.63-.69,1.92,1.92,0,0,0-2,0,2,2,0,0,0-.67.77,2.17,2.17,0,0,0-.23,1v.58a2.83,2.83,0,0,0,.25,1.26,1.82,1.82,0,0,0,.72.78,2.17,2.17,0,0,0,1.07.26,2.05,2.05,0,0,0,.72-.11,1.68,1.68,0,0,0,.56-.34,1.64,1.64,0,0,0,.36-.57l1,.27a2.15,2.15,0,0,1-.52.87,2.5,2.5,0,0,1-.89.58A3.29,3.29,0,0,1,201.42,12.88Zm5.25-4.08v3.94h-1V6.19h1v1h.09a1.75,1.75,0,0,1,.7-.8,2.11,2.11,0,0,1,1.21-.31,2.39,2.39,0,0,1,1.16.27,1.88,1.88,0,0,1,.78.82,3.08,3.08,0,0,1,.27,1.38v4.16h-1V8.65a1.7,1.7,0,0,0-.4-1.2,1.44,1.44,0,0,0-1.1-.44,1.74,1.74,0,0,0-.86.21,1.53,1.53,0,0,0-.6.61A2.07,2.07,0,0,0,206.67,8.8Zm8.86-2.61v.86h-3.39V6.19Zm-2.41-1.56h1v6.23a1.32,1.32,0,0,0,.12.64.63.63,0,0,0,.33.28,1.16,1.16,0,0,0,.42.07h.27l.17,0,.21.91-.29.07a2,2,0,0,1-.46,0,2,2,0,0,1-.84-.18,1.64,1.64,0,0,1-.67-.56,1.56,1.56,0,0,1-.27-.94Zm6.51,8.25a2.9,2.9,0,0,1-1.56-.43,2.85,2.85,0,0,1-1-1.18,4.05,4.05,0,0,1-.37-1.77A4.17,4.17,0,0,1,217,7.71a2.76,2.76,0,0,1,2.6-1.6,2.76,2.76,0,0,1,2.59,1.6,4,4,0,0,1,.37,1.79,3.91,3.91,0,0,1-.37,1.77,2.79,2.79,0,0,1-1,1.18A2.84,2.84,0,0,1,219.63,12.88Zm0-.91a1.73,1.73,0,0,0,1.11-.34,2.07,2.07,0,0,0,.64-.91,3.65,3.65,0,0,0,0-2.44,2,2,0,0,0-.64-.92,1.94,1.94,0,0,0-2.22,0,2,2,0,0,0-.64.92,3.65,3.65,0,0,0,0,2.44,2.07,2.07,0,0,0,.64.91A1.73,1.73,0,0,0,219.63,12Zm9.14-4.31-.91.26a1.39,1.39,0,0,0-.25-.44,1.13,1.13,0,0,0-.44-.36,1.54,1.54,0,0,0-.72-.14,1.73,1.73,0,0,0-1,.27.83.83,0,0,0-.4.7.71.71,0,0,0,.27.59,2.11,2.11,0,0,0,.86.36l1,.24a2.73,2.73,0,0,1,1.31.65,1.57,1.57,0,0,1,.43,1.13,1.62,1.62,0,0,1-.33,1,2.1,2.1,0,0,1-.89.7,3.3,3.3,0,0,1-1.34.26,3,3,0,0,1-1.66-.44,1.92,1.92,0,0,1-.83-1.27l.95-.24a1.37,1.37,0,0,0,.52.79,1.71,1.71,0,0,0,1,.27,1.88,1.88,0,0,0,1.12-.3.87.87,0,0,0,.42-.72.75.75,0,0,0-.24-.57,1.46,1.46,0,0,0-.74-.35l-1.09-.26a2.56,2.56,0,0,1-1.32-.66,1.7,1.7,0,0,1-.1-2.11,2.12,2.12,0,0,1,.85-.67,3.08,3.08,0,0,1,1.24-.24,2.45,2.45,0,0,1,1.52.42A2.31,2.31,0,0,1,228.77,7.66Z" transform="translate(-1 -0.74)"/></svg>